<svg xmlns="http://www.w3.org/2000/svg" xmlns:xlink="http://www.w3.org/1999/xlink" fill="none" version="1.1" width="50" height="50" viewBox="0 0 50 50">
    <defs>
        <clipPath id="master_svg0_0_317">
            <rect x="13" y="13" width="24" height="24" rx="0"/>
        </clipPath>
    </defs>
    <g>
        <g>
            <ellipse cx="25" cy="25" rx="25" ry="25" fill="#C8F8E4" fill-opacity="1"/>
        </g>
        <g>
            <g>
                <g>
                    <path d="M36.29695940172448,20.368387536468504C36.29695940172448,20.368387536468504,23.63595940172448,33.02849753646851,23.63595940172448,33.02849753646851C22.698419401724482,33.9662975364685,21.177549401724484,33.9662975364685,20.23909940172448,33.02849753646851C20.23909940172448,33.02849753646851,13.703398401724481,26.492297536468506,13.703398401724481,26.492297536468506C12.765479401724482,25.554597536468506,12.765479401724482,24.033547536468504,13.703398401724481,23.095627536468506C14.641489401724481,22.157527536468507,16.16224940172448,22.157527536468507,17.09992940172448,23.095267536468505C17.09992940172448,23.095267536468505,21.938049401724484,27.933397536468505,21.938049401724484,27.933397536468505C21.938049401724484,27.933397536468505,32.89995940172448,16.971502536468506,32.89995940172448,16.971502536468506C33.83805940172448,16.033407536468506,35.35885940172448,16.034117536468507,36.29665940172448,16.971502536468506C37.23435940172448,17.909417536468506,37.23435940172448,19.429937536468508,36.29695940172448,20.368387536468504Z" fill="#1DC37E" fill-opacity="1"/>
                </g>
            </g>
        </g>
    </g>
</svg>
