<svg xmlns="http://www.w3.org/2000/svg" xmlns:xlink="http://www.w3.org/1999/xlink" fill="none" version="1.1" width="5.874912738800049" height="10.000000000000002" viewBox="0 0 5.874912738800049 10.000000000000002"><g transform="matrix(1,-1.6081230200044232e-16,1.6081230200044232e-16,1,-2.856600325181843e-31,0)"><path d="M5.7154,4.609800000000002C5.7154,4.609800000000002,1.26527,0.15975500000000178,1.26527,0.15975500000000178C1.16235,0.056747500000001776,1.02495,1.7763568394002505e-15,0.878448,1.7763568394002505e-15C0.731945,1.7763568394002505e-15,0.594548,0.056747500000001776,0.491622,0.15975500000000178C0.491622,0.15975500000000178,0.163901,0.48739400000000177,0.163901,0.48739400000000177C-0.0493491,0.7008890000000018,-0.0493491,1.0478800000000017,0.163901,1.2610500000000018C0.163901,1.2610500000000018,3.90078,4.997930000000002,3.90078,4.997930000000002C3.90078,4.997930000000002,0.159755,8.738950000000003,0.159755,8.738950000000003C0.0568288,8.841960000000002,0,8.979280000000001,0,9.125700000000002C0,9.272280000000002,0.0568288,9.409600000000001,0.159755,9.512690000000001C0.159755,9.512690000000001,0.487476,9.840250000000001,0.487476,9.840250000000001C0.590483,9.943250000000003,0.727799,10.000000000000002,0.874302,10.000000000000002C1.0208,10.000000000000002,1.1582,9.943250000000003,1.26113,9.840250000000001C1.26113,9.840250000000001,5.7154,5.386140000000002,5.7154,5.386140000000002C5.81857,5.282800000000002,5.87524,5.144840000000002,5.87491,4.998170000000002C5.87524,4.850940000000001,5.81857,4.713050000000002,5.7154,4.609800000000002Z" fill-opacity="1"/></g></svg>
