<svg xmlns="http://www.w3.org/2000/svg" fill="#7653FC" width="30" height="30" viewBox="0 0 30 30">
    <path fill-rule="evenodd" d="M15,0 C6.73,0 0,6.73 0,15 C0,23.27 6.73,30 15,30 C23.27,30 30,23.27 30,15 C30,6.73 23.27,0 15,0 Z M15,27.63 C8.04,27.63 2.37,21.96 2.37,15 C2.37,8.04 8.04,2.37 15,2.37 C21.96,2.37 27.63,8.04 27.63,15 C27.63,21.96 21.96,27.63 15,27.63 Z"/>
    <path d="M15,17.66 C10.78,17.66 6.83,19.78 3.89,23.62 C3.89,23.62 5.77,25.06 5.77,25.06 C8.26,21.82 11.54,20.04 15,20.04 C18.46,20.04 21.74,21.82 24.23,25.06 C24.23,25.06 26.11,23.62 26.11,23.62 C23.17,19.78 19.22,17.66 15,17.66 Z"/>
    <path fill-rule="evenodd" d="M15,5.38 C11.6,5.38 8.83,8.17 8.83,11.6 C8.83,15.02 11.6,17.81 15,17.81 C18.4,17.81 21.17,15.02 21.17,11.6 C21.17,8.17 18.4,5.38 15,5.38 Z M15,15.44 C12.91,15.44 11.2,13.71 11.2,11.6 C11.2,9.48 12.91,7.76 15,7.76 C17.09,7.76 18.8,9.48 18.8,11.6 C18.8,13.71 17.09,15.44 15,15.44 Z"/>
</svg>
