<svg xmlns="http://www.w3.org/2000/svg" xmlns:xlink="http://www.w3.org/1999/xlink" fill="#787D85" version="1.1" width="24" height="24" viewBox="0 0 24 24"><defs><clipPath id="master_svg0_0_63"><rect x="0" y="0" width="24" height="24" rx="0"/></clipPath></defs><g clip-path="url(#master_svg0_0_63)"><g><g><path d="M11.999995,12.891936889648438C11.999995,12.891936889648438,5.671875,10.350936889648438,5.671875,10.350936889648438C5.671875,10.350936889648438,5.671875,12.186746889648438,5.671875,12.186746889648438C5.671875,14.191076889648437,8.392355,15.702376889648438,11.999995,15.702376889648438C15.607645,15.702376889648438,18.328075,14.191076889648437,18.328075,12.186746889648438C18.328075,12.186746889648438,18.328075,10.350936889648438,18.328075,10.350936889648438C18.328075,10.350936889648438,11.999995,12.891936889648438,11.999995,12.891936889648438Z" fill-opacity="1"/></g><g><path d="M24,16.405539794921875C24,15.490039794921875,23.4104,14.716839794921874,22.5938,14.425639794921874C22.5938,14.425639794921874,22.5938,7.141559794921875,22.5938,7.141559794921875C22.5938,7.141559794921875,24,6.561759794921875,24,6.561759794921875C24,6.561759794921875,12,1.747039794921875,12,1.747039794921875C12,1.747039794921875,0,6.561759794921875,0,6.561759794921875C0,6.561759794921875,12,11.376529794921876,12,11.376529794921876C12,11.376529794921876,21.1875,7.706209794921875,21.1875,7.706209794921875C21.1875,7.706209794921875,21.1875,14.425639794921874,21.1875,14.425639794921874C20.3708,14.716839794921874,19.7812,15.490039794921875,19.7812,16.405539794921875C19.7812,17.243639794921876,20.2762,17.963039794921876,20.986,18.303039794921876C20.986,18.303039794921876,19.8177,21.808039794921875,19.8177,21.808039794921875C19.8177,21.808039794921875,21.1511,22.252939794921875,21.1511,22.252939794921875C21.1511,22.252939794921875,21.8906,20.034439794921877,21.8906,20.034439794921877C21.8906,20.034439794921877,22.6301,22.252939794921875,22.6301,22.252939794921875C22.6301,22.252939794921875,23.9636,21.808039794921875,23.9636,21.808039794921875C23.9636,21.808039794921875,22.7953,18.303039794921876,22.7953,18.303039794921876C23.505,17.963139794921876,24,17.243639794921876,24,16.405539794921875Z" fill-opacity="1"/></g></g></g></svg>
