<svg xmlns="http://www.w3.org/2000/svg" xmlns:xlink="http://www.w3.org/1999/xlink" fill="#787D85" version="1.1" width="24" height="24" viewBox="0 0 24 24"><defs><clipPath id="master_svg0_0_42"><rect x="0" y="0" width="24" height="24" rx="0"/></clipPath></defs><g clip-path="url(#master_svg0_0_42)"><g><g><g><path d="M19.6537,8.76156C19.7086,8.47062,19.7363,8.173860000000001,19.7363,7.875C19.7363,5.186780000000001,17.4891,3,14.7266,3C12.96313,3,11.32857,3.914081,10.43056,5.36661C9.218340000000001,4.9841999999999995,7.97459,5.14818,6.9499200000000005,5.8353C5.92526,6.5218799999999995,5.3137,7.60893,5.2642299999999995,8.79753C3.917195,9.42012,3,10.74573,3,12.20833C3,12.46223,3.0631973,12.70981,3.111551,12.94995C3.111551,12.94995,3.112107,12.95049,3.112107,12.95049C3.471994,14.7178,5.07939,16,6.933590000000001,16C6.933590000000001,16,18.0664,16,18.0664,16C20.2147,16,22,14.2988,22,12.20833C22,10.72987,21.0703,9.398959999999999,19.6537,8.76156Z" fill-opacity="1"/></g></g></g></g></svg>
