<svg xmlns="http://www.w3.org/2000/svg" xmlns:xlink="http://www.w3.org/1999/xlink" fill="#BBBBBB" version="1.1" width="20" height="20" viewBox="0 0 20 20"><g><g><ellipse cx="10" cy="10" rx="10" ry="10" fill-opacity="1"/></g><g><path d="M15.9686,8.53412C15.8896,8.280560000000001,15.6741,8.10105,15.4201,8.077069999999999C15.4201,8.077069999999999,11.95606,7.7489,11.95606,7.7489C11.95606,7.7489,10.58705,4.404315,10.58705,4.404315C10.48598,4.158592,10.25599,4,10.00001,4C9.744019999999999,4,9.513950000000001,4.158592,9.413509999999999,4.404315C9.413509999999999,4.404315,8.0445,7.7489,8.0445,7.7489C8.0445,7.7489,4.579911,8.077069999999999,4.579911,8.077069999999999C4.32594,8.10152,4.110879,8.28104,4.0314103,8.53412C3.9523991,8.78768,4.0253677,9.06579,4.217448,9.24157C4.217448,9.24157,6.83599,11.63756,6.83599,11.63756C6.83599,11.63756,6.06391,15.186,6.06391,15.186C6.00742,15.4469,6.10447,15.7167,6.31193,15.8732C6.42345,15.9578,6.554460000000001,16,6.68593,16C6.798909999999999,16,6.91198,15.9687,7.01296,15.9056C7.01296,15.9056,10.00001,14.0419,10.00001,14.0419C10.00001,14.0419,12.9865,15.9056,12.9865,15.9056C13.20559,16.0422,13.48108,16.0297,13.68808,15.8732C13.89554,15.7167,13.99259,15.4469,13.9361,15.186C13.9361,15.186,13.16403,11.63756,13.16403,11.63756C13.16403,11.63756,15.7826,9.24157,15.7826,9.24157C15.9746,9.06579,16.0476,8.78825,15.9686,8.53412C15.9686,8.53412,15.9686,8.53412,15.9686,8.53412Z" fill="#FFFFFF" fill-opacity="1"/></g></g></svg>
