<svg xmlns="http://www.w3.org/2000/svg" xmlns:xlink="http://www.w3.org/1999/xlink" fill="none" version="1.1" width="159" height="42.870849609375" viewBox="0 0 159 42.870849609375"><g><g><path d="M71.14,23.130891571044923Q71.14,25.620891571044922,70.525,27.64589157104492Q69.91,29.670891571044923,68.66499999999999,31.14089157104492Q67.42,32.61089157104492,65.485,33.39089157104492Q63.55,34.17089157104492,60.94,34.17089157104492Q58.33,34.17089157104492,56.394999999999996,33.37589157104492Q54.46,32.58089157104492,53.215,31.12589157104492Q51.97,29.670891571044923,51.355,27.630891571044923Q50.74,25.59089157104492,50.74,23.100891571044922Q50.74,19.77089157104492,51.835,17.31089157104492Q52.93,14.850891571044922,55.195,13.485891571044922Q57.46,12.120891571044922,60.97,12.120891571044922Q64.45,12.120891571044922,66.7,13.485891571044922Q68.95,14.850891571044922,70.045,17.32589157104492Q71.14,19.80089157104492,71.14,23.130891571044923ZM55.51,23.130891571044923Q55.51,25.380891571044923,56.08,27.00089157104492Q56.65,28.620891571044922,57.85,29.490891571044923Q59.05,30.36089157104492,60.94,30.36089157104492Q62.89,30.36089157104492,64.075,29.490891571044923Q65.26,28.620891571044922,65.815,27.00089157104492Q66.37,25.380891571044923,66.37,23.130891571044923Q66.37,19.740891571044923,65.11,17.82089157104492Q63.85,15.900891571044921,60.97,15.900891571044921Q59.05,15.900891571044921,57.85,16.77089157104492Q56.65,17.64089157104492,56.08,19.260891571044922Q55.51,20.880891571044923,55.51,23.130891571044923ZM101.89,12.450891571044922L96.43,33.87089157104492L91.27000000000001,33.87089157104492L88.36,22.620891571044922Q88.27000000000001,22.290891571044924,88.13499999999999,21.630891571044923Q88,20.970891571044923,87.83500000000001,20.190891571044922Q87.67,19.41089157104492,87.55,18.705891571044923Q87.43,18.00089157104492,87.37,17.610891571044924Q87.34,18.00089157104492,87.205,18.705891571044923Q87.07,19.41089157104492,86.92,20.17589157104492Q86.77000000000001,20.940891571044922,86.62,21.615891571044923Q86.47,22.290891571044924,86.38,22.650891571044923L83.5,33.87089157104492L78.34,33.87089157104492L72.88,12.450891571044922L77.35,12.450891571044922L80.08,24.150891571044923Q80.2,24.66089157104492,80.35,25.39589157104492Q80.5,26.130891571044923,80.65,26.92589157104492Q80.8,27.720891571044923,80.935,28.470891571044923Q81.07,29.220891571044923,81.13,29.760891571044922Q81.19,29.190891571044922,81.31,28.455891571044923Q81.43,27.720891571044923,81.58,26.955891571044923Q81.72999999999999,26.190891571044922,81.86500000000001,25.51589157104492Q82,24.840391571044922,82.12,24.45039157104492L85.24000000000001,12.450891571044922L89.53,12.450891571044922L92.65,24.45039157104492Q92.74000000000001,24.840391571044922,92.89,25.51589157104492Q93.03999999999999,26.190891571044922,93.19,26.970891571044923Q93.34,27.75089157104492,93.46000000000001,28.48589157104492Q93.58,29.220891571044923,93.64,29.760891571044922Q93.72999999999999,29.010891571044922,93.91,27.975891571044922Q94.09,26.940891571044922,94.315,25.89089157104492Q94.53999999999999,24.84089157104492,94.69,24.150891571044923L97.42,12.450891571044922L101.89,12.450891571044922ZM104.59,33.87089157104492L104.59,12.450891571044922L109.12,12.450891571044922L109.12,30.120891571044922L117.82,30.120891571044922L117.82,33.87089157104492L104.59,33.87089157104492Z" fill="#7653FC" fill-opacity="1"/></g><g><path d="M128.3415,32.28179157104492Q128.91713,32.28179157104492,129.38287,32.19779157104492Q129.84863,32.11379157104492,130.218,31.97949157104492L130.218,32.78429157104492Q129.84375,32.91399157104492,129.363,33.012291571044926Q128.88263,33.11089157104492,128.26837,33.11089157104492Q127.18388,33.11089157104492,126.504,32.69619157104492Q125.82413,32.28099157104492,125.5065,31.45529157104492Q125.18887,30.629491571044923,125.18887,29.432891571044923L125.18887,20.96949157104492L123.26925,20.96949157104492L123.26925,20.343991571044924L125.17462,20.115991571044923L125.46,17.05489157104492L126.11512,17.05489157104492L126.11512,20.159891571044923L130.16025,20.159891571044923L130.16025,20.96949157104492L126.11512,20.96949157104492L126.11512,29.365791571044923Q126.11512,30.771291571044923,126.612,31.52649157104492Q127.10925,32.28179157104492,128.3415,32.28179157104492ZM143.4075,26.510491571044923Q143.4075,27.946391571044924,143.064,29.153891571044923Q142.72050000000002,30.360991571044924,142.017,31.244091571044923Q141.3135,32.12729157104492,140.2642,32.619291571044926Q139.2154,33.11089157104492,137.8091,33.11089157104492Q136.4606,33.11089157104492,135.4283,32.62859157104492Q134.3962,32.14639157104492,133.6901,31.26329157104492Q132.98438,30.38019157104492,132.62625,29.17299157104492Q132.2685,27.96549157104492,132.2685,26.510491571044923Q132.2685,24.47019157104492,132.9405,22.994091571044923Q133.6129,21.518191571044923,134.8898,20.718991571044924Q136.167,19.91989157104492,137.9385,19.91989157104492Q139.8244,19.91989157104492,141.0319,20.776391571044922Q142.2397,21.632891571044922,142.8236,23.11859157104492Q143.4075,24.603991571044922,143.4075,26.510491571044923ZM133.2285,26.510491571044923Q133.2285,28.213791571044922,133.7295,29.52099157104492Q134.2309,30.82829157104492,135.2524,31.55279157104492Q136.2743,32.27689157104492,137.81889999999999,32.27689157104492Q139.4209,32.27689157104492,140.4424,31.542991571044922Q141.4643,30.80909157104492,141.95589999999999,29.501891571044922Q142.4475,28.19459157104492,142.4475,26.510491571044923Q142.4475,24.87889157104492,141.9915,23.579191571044923Q141.5359,22.27899157104492,140.5451,21.51889157104492Q139.5548,20.758791571044924,137.9288,20.758791571044924Q135.6356,20.758791571044924,134.4319,22.28429157104492Q133.2285,23.809791571044922,133.2285,26.510491571044923ZM152.4596,19.91989157104492Q154.9504,19.91989157104492,156.2779,21.56649157104492Q157.6058,23.21279157104492,157.6058,26.414891571044922Q157.6058,28.560691571044924,156.9649,30.060691571044924Q156.324,31.560691571044924,155.136,32.33579157104492Q153.948,33.11089157104492,152.2635,33.11089157104492Q151.0691,33.11089157104492,150.1864,32.73209157104492Q149.3036,32.353391571044924,148.7445,31.722991571044922Q148.18540000000002,31.092691571044924,147.897,30.32089157104492L147.8295,30.32089157104492Q147.8775,31.05399157104492,147.8872,31.80249157104492Q147.897,32.55069157104492,147.897,33.25529157104492L147.897,38.47789157104492L146.9708,38.47789157104492L146.9708,20.159891571044923L147.7425,20.159891571044923L147.8393,22.925491571044923L147.897,22.925491571044923Q148.18540000000002,22.14399157104492,148.773,21.458491571044924Q149.361,20.772991571044923,150.2794,20.34659157104492Q151.1981,19.91989157104492,152.4596,19.91989157104492ZM152.3816,20.758791571044924Q150.8944,20.758791571044924,149.9014,21.42289157104492Q148.90879999999999,22.086991571044923,148.4051,23.34849157104492Q147.9019,24.609691571044923,147.897,26.408491571044923L147.897,26.548791571044923Q147.897,28.49609157104492,148.4051,29.76289157104492Q148.9132,31.029291571044922,149.8703,31.65329157104492Q150.8272,32.27689157104492,152.2001,32.27689157104492Q153.6248,32.27689157104492,154.6103,31.600391571044923Q155.5957,30.923491571044924,156.1208,29.616291571044922Q156.6458,28.30899157104492,156.6458,26.409991571044923Q156.6458,23.589991571044923,155.5736,22.17439157104492Q154.5019,20.758791571044924,152.3816,20.758791571044924Z" fill="#7653FC" fill-opacity="1"/></g><g><g><g><g><path d="M41,1.17933C41,0.528027,40.4622,0,39.7988,0C39.1355,0,38.5977,0.528027,38.5977,1.17933C38.5977,2.45797,37.4609,3.53808,36.1152,3.53808C36.1152,3.53808,30.6968,3.53808,30.6968,3.53808C27.6077,1.99433,24.0892,1.17941,20.5,1.17941C16.9108,1.17941,13.3923,1.99433,10.3032,3.53808C10.3032,3.53808,4.89942,3.53808,4.89942,3.53808C3.54586,3.53816,2.40234,2.45797,2.40234,1.17933C2.40234,0.528027,1.86454,0,1.20117,0C0.537805,0,0,0.528027,0,1.17933C0,1.17933,0,4.71742,0,4.71742C0,6.9054,0.88198,8.96719,2.48386,10.5289C0.856035,13.1417,0,16.0044,0,18.8695C0,28.6238,9.19625,36.5595,20.5,36.5595C31.8037,36.5595,41,28.6238,41,18.8695C41,16.0088,40.1464,13.15,38.523,10.5402C40.0529,9.04628,41,6.98748,41,4.71749C41,4.71749,41,1.17933,41,1.17933ZM20.5001,3.53816C22.4136,3.53816,24.3025,3.79636,26.0992,4.29569C24.7576,4.82356,23.5262,5.61796,22.474,6.65255C21.6723,7.44089,21.0131,8.33137,20.5074,9.29355C20.0017,8.33137,19.3425,7.44089,18.5407,6.65255C17.487,5.61638,16.2535,4.8212,14.9094,4.29333C16.7036,3.79557,18.5895,3.53816,20.5001,3.53816ZM20.5,23.1174C20.9492,23.8494,21.5108,24.5074,22.1611,25.069C22.1611,25.069,20.5,28.1451,20.5,28.1451C20.5,28.1451,18.8389,25.0689,18.8389,25.0689C19.4892,24.5074,20.0508,23.8493,20.5,23.1174ZM13.293,24.7662C9.98134,24.7662,7.28711,22.1209,7.28711,18.8695C7.28711,15.6181,9.98134,12.9728,13.293,12.9728C16.6046,12.9728,19.2988,15.6181,19.2988,18.8695C19.2988,22.1209,16.6046,24.7662,13.293,24.7662ZM21.7012,18.8695C21.7012,18.7757,21.704,18.6825,21.7084,18.5898C21.7167,18.5334,21.7225,18.4762,21.7223,18.4175C21.7223,18.4175,21.7223,18.395,21.7223,18.395C21.9695,15.3648,24.5582,12.9728,27.707,12.9728C31.0187,12.9728,33.7129,15.6181,33.7129,18.8695C33.7129,22.1209,31.0187,24.7662,27.707,24.7662C24.3954,24.7662,21.7012,22.1209,21.7012,18.8695ZM2.42621,5.24136C3.17278,5.66875,4.0212,5.89683,4.89942,5.89683C4.89942,5.89683,10.5791,5.89683,10.5791,5.89683C10.5791,5.89683,10.585,5.89683,10.585,5.89683C10.585,5.89683,10.8906,5.89683,10.8906,5.89683C13.139,5.89683,15.2521,6.75712,16.8407,8.31918C18.1513,9.60796,18.9743,11.2466,19.2204,13.0202C17.8662,11.6973,16.0568,10.8237,14.0459,10.6477C13.956,10.6265,13.8626,10.6142,13.7661,10.6142C13.7661,10.6142,8.50286,10.6142,8.50286,10.6142C7.1907,10.6142,5.97455,10.2109,4.97846,9.52698C4.91423,9.45417,4.84104,9.38711,4.7568,9.32964C4.70067,9.29135,4.64205,9.25966,4.58223,9.23191C3.3801,8.25495,2.57227,6.83865,2.42621,5.24136ZM38.5977,18.8695C38.5977,27.3232,30.4791,34.2009,20.5,34.2009C10.5209,34.2009,2.40234,27.3232,2.40234,18.8695C2.40234,16.5099,3.09582,14.1386,4.41687,11.9492C5.36259,12.4579,6.39808,12.7856,7.47769,12.9127C5.88062,14.4162,4.88477,16.5307,4.88477,18.8695C4.88477,23.4215,8.65668,27.1249,13.293,27.1249C14.5513,27.1249,15.7457,26.8516,16.8185,26.3631C16.8185,26.3631,19.4387,31.2153,19.4387,31.2153C19.6471,31.6011,20.0553,31.8423,20.5,31.8423C20.9447,31.8423,21.3529,31.6011,21.5613,31.2153C21.5613,31.2153,24.1815,26.3631,24.1815,26.3631C25.2543,26.8516,26.4488,27.1249,27.707,27.1249C32.3433,27.1249,36.1152,23.4215,36.1152,18.8695C36.1152,16.5314,35.1199,14.4174,33.5237,12.9139C34.6228,12.7863,35.6581,12.4539,36.5878,11.9568C37.9058,14.1442,38.5977,16.5129,38.5977,18.8695ZM36.3987,9.25086C36.3475,9.27594,36.2972,9.30353,36.2489,9.33648C36.1712,9.38947,36.1028,9.45056,36.042,9.51668C35.0456,10.2067,33.8271,10.6141,32.5117,10.6141C32.5117,10.6141,27.2484,10.6141,27.2484,10.6141C27.1547,10.6141,27.0639,10.6256,26.9764,10.6456C24.9648,10.8165,23.1538,11.6853,21.7964,13.004C22.0453,11.2366,22.8673,9.60395,24.1739,8.3191C25.7625,6.75704,27.8756,5.89675,30.1239,5.89675C30.1239,5.89675,30.3957,5.89675,30.3957,5.89675C30.3984,5.89675,30.401,5.89699,30.4037,5.89699C30.406,5.89699,30.4083,5.89675,30.4106,5.89675C30.4106,5.89675,36.1152,5.89675,36.1152,5.89675C36.9885,5.89675,37.8315,5.67087,38.5732,5.24765C38.425,6.85296,37.6096,8.2746,36.3987,9.25086Z" fill="#7653FC" fill-opacity="1"/></g></g></g><g><path d="M13.5,16.118865966796875L14.51031,18.709845966796877L17.77975,18.709845966796877L15.13472,20.311155966796875L16.14503,22.902125966796874L13.5,21.300815966796876L10.85497,22.902125966796874L11.86528,20.311155966796875L9.220246,18.709845966796877L12.48969,18.709845966796877L13.5,16.118865966796875Z" fill="#7653FC" fill-opacity="1"/></g><g><path d="M27.5,16.118865966796875L28.51031,18.709845966796877L31.77975,18.709845966796877L29.13472,20.311155966796875L30.14503,22.902125966796874L27.5,21.300815966796876L24.85497,22.902125966796874L25.86528,20.311155966796875L23.220246,18.709845966796877L26.48969,18.709845966796877L27.5,16.118865966796875Z" fill="#7653FC" fill-opacity="1"/></g></g></g></svg>