<svg xmlns="http://www.w3.org/2000/svg" xmlns:xlink="http://www.w3.org/1999/xlink" fill="#787D85" version="1.1" width="24" height="22.4981689453125" viewBox="0 0 24 22.4981689453125"><defs><clipPath id="master_svg0_0_407"><rect x="0" y="0" width="24" height="22.4981689453125" rx="0"/></clipPath></defs><g clip-path="url(#master_svg0_0_407)"><g><path d="M5.059404978027343,3.749755859375C5.0588659780273435,3.749755859375,5.058259978027344,3.749755859375,5.057720978027344,3.749755859375C4.868561978027344,3.749755859375,4.690648978027344,3.818879259375,4.5563049780273435,3.944500859375C4.420479978027344,4.071510859375,4.345664978027344,4.240626859375,4.345664978027344,4.420663859375C4.345664978027344,4.420663859375,4.345664978027344,14.480855859375,4.345664978027344,14.480855859375C4.345664978027344,14.849755859375,4.667079978027344,15.150555859375,5.062232978027343,15.151555859375C6.728094978027343,15.155255859375,9.519084978027344,15.480755859375,11.444474978027344,17.369555859374998C11.444474978027344,17.369555859374998,11.444474978027344,6.841305859375,11.444474978027344,6.841305859375C11.444474978027344,6.716255859375,11.410404978027344,6.598775859374999,11.346094978027343,6.501565859375C9.765814978027343,4.115888859375,6.729034978027344,3.753417189375,5.059404978027343,3.749755859375Z" fill-opacity="1"/></g><g><path d="M19.6544140625,14.48079482421875C19.6544140625,14.48079482421875,19.6544140625,4.42060182421875,19.6544140625,4.42060182421875C19.6544140625,4.24056582421875,19.5795940625,4.07144982421875,19.4437740625,3.94443982421875C19.3094240625,3.81881812421875,19.1313740625,3.74969482421875,18.9424240625,3.74969482421875C18.9418140625,3.74969482421875,18.9412040625,3.74969482421875,18.9406740625,3.74969482421875C17.2711040625,3.75341928421875,14.2343240625,4.11589082421875,12.6539803625,6.50156482421875C12.5896703625,6.59877482421875,12.5556640625,6.716254824218749,12.5556640625,6.84130482421875C12.5556640625,6.84130482421875,12.5556640625,17.369494824218748,12.5556640625,17.369494824218748C14.4810540625,15.48069482421875,17.2720440625,15.15519482421875,18.9379040625,15.15149482421875C19.3329940625,15.15049482421875,19.6544140625,14.84969482421875,19.6544140625,14.48079482421875Z" fill-opacity="1"/></g><g><path d="M21.284435568847655,6.0697784423828125C21.284435568847655,6.0697784423828125,20.765515568847654,6.0697784423828125,20.765515568847654,6.0697784423828125C20.765515568847654,6.0697784423828125,20.765515568847654,14.480798442382813,20.765515568847654,14.480798442382813C20.765515568847654,15.422708442382813,19.946855568847656,16.190778442382815,18.940525568847654,16.193078442382813C17.527525568847658,16.196278442382813,15.197685568847657,16.455278442382813,13.547645568847656,17.91927844238281C16.401395568847654,17.26427844238281,19.409755568847658,17.689978442382813,21.124235568847656,18.056278442382812C21.338315568847655,18.101978442382812,21.559525568847654,18.054778442382812,21.731045568847655,17.926578442382812C21.901955568847654,17.79877844238281,21.999995568847655,17.607678442382813,21.999995568847655,17.40257844238281C21.999995568847655,17.40257844238281,21.999995568847655,6.740559442382812,21.999995568847655,6.740559442382812C22.000065568847656,6.3707014423828126,21.678985568847658,6.0697784423828125,21.284435568847655,6.0697784423828125Z" fill-opacity="1"/></g><g><path d="M3.23448,14.480808442382813C3.23448,14.480808442382813,3.23448,6.0697784423828125,3.23448,6.0697784423828125C3.23448,6.0697784423828125,2.715558,6.0697784423828125,2.715558,6.0697784423828125C2.321079,6.0697784423828125,2,6.370702442382813,2,6.7405604423828125C2,6.7405604423828125,2,17.402378442382812,2,17.402378442382812C2,17.607578442382813,2.0980475,17.798578442382812,2.268957,17.926478442382813C2.440338,18.054478442382813,2.661349,18.101978442382812,2.87576,18.056078442382812C4.59024,17.68977844238281,7.59867,17.26407844238281,10.45228,17.919078442382812C8.80231,16.455178442382813,6.47247,16.196178442382813,5.05947,16.193078442382813C4.05321,16.190778442382815,3.23448,15.422718442382813,3.23448,14.480808442382813Z" fill-opacity="1"/></g></g></svg>
