<svg xmlns="http://www.w3.org/2000/svg" xmlns:xlink="http://www.w3.org/1999/xlink" fill="#787D85" version="1.1" width="24" height="22.49822998046875" viewBox="0 0 24 22.49822998046875"><defs><clipPath id="master_svg0_0_414"><rect x="0" y="0" width="24" height="22.49822998046875" rx="0"/></clipPath></defs><g clip-path="url(#master_svg0_0_414)"><g><path d="M15.090010681152343,4.168148747558593C15.090010681152343,4.168148747558593,6.921760681152344,8.088468747558593,6.921760681152344,8.088468747558593C6.921760681152344,8.088468747558593,3.6750106811523438,6.590928747558594,3.6750106811523438,6.590928747558594C3.6750106811523438,6.590928747558594,11.699260681152344,2.8766096475585936,11.699260681152344,2.8766096475585936C11.879260681152344,2.7908351475585937,12.095260681152343,2.7908351475585937,12.284260681152343,2.8766096475585936C12.284260681152343,2.8766096475585936,15.090010681152343,4.168148747558593,15.090010681152343,4.168148747558593Z" fill-opacity="1"/></g><g><path d="M20.31600897216797,6.590927734832764C20.31600897216797,6.590927734832764,12.004508972167969,10.450777734832764,12.004508972167969,10.450777734832764C12.004508972167969,10.450777734832764,8.892008972167968,9.012997734832764,8.892008972167968,9.012997734832764C8.892008972167968,9.012997734832764,8.442008972167969,8.798567734832764,8.442008972167969,8.798567734832764C8.442008972167969,8.798567734832764,16.619248972167966,4.878947734832764,16.619248972167966,4.878947734832764C16.619248972167966,4.878947734832764,17.06924897216797,5.092680734832764,17.06924897216797,5.092680734832764C17.06924897216797,5.092680734832764,20.31600897216797,6.590927734832764,20.31600897216797,6.590927734832764Z" fill-opacity="1"/></g><g><path d="M11.3385,11.563020299530029C11.3385,11.563020299530029,11.3295,19.685570299530028,11.3295,19.685570299530028C11.3295,19.685570299530028,3.3689999999999998,15.79128029953003,3.3689999999999998,15.79128029953003C3.144,15.680200299530028,3,15.457330299530028,3,15.217580299530029C3,15.217580299530029,3,7.703170299530029,3,7.703170299530029C3,7.703170299530029,6.3735,9.26117029953003,6.3735,9.26117029953003C6.3735,9.26117029953003,6.3735,12.00033029953003,6.3735,12.00033029953003C6.3735,12.35116029953003,6.6795,12.642230299530029,7.0485,12.642230299530029C7.4175,12.642230299530029,7.7235,12.35116029953003,7.7235,12.00033029953003C7.7235,12.00033029953003,7.7235,9.894640299530028,7.7235,9.894640299530028C7.7235,9.894640299530028,8.1735,10.09993029953003,8.1735,10.09993029953003C8.1735,10.09993029953003,11.3385,11.563020299530029,11.3385,11.563020299530029Z" fill-opacity="1"/></g><g><path d="M20.991012023925784,7.711609840393066C20.991012023925784,7.711609840393066,12.688512083925781,11.554589840393067,12.688512083925781,11.554589840393067C12.688512083925781,11.554589840393067,12.679512023925781,19.677109840393065,12.679512023925781,19.677109840393065C12.679512023925781,19.677109840393065,21.00001202392578,15.604269840393066,21.00001202392578,15.604269840393066C21.00001202392578,15.604269840393066,20.991012023925784,7.711609840393066,20.991012023925784,7.711609840393066Z" fill-opacity="1"/></g></g></svg>
